<svg width="20" height="18" viewBox="0 0 20 18" fill="none" xmlns="http://www.w3.org/2000/svg">
<path d="M17.5 2.50009H15.7726L14.522 0H5.47686L4.22741 2.50132L2.5025 2.50439C1.12735 2.50684 0.00790247 3.62748 0.00671505 5.00324L0 14.9999C0 16.3787 1.12125 17.5006 2.50009 17.5006H17.5C18.8788 17.5006 20 16.3793 20 15.0005V5.00013C20 3.62134 18.8787 2.50009 17.5 2.50009ZM9.99969 14.3754C7.24263 14.3754 4.99952 12.1323 4.99952 9.37528C4.99952 6.61822 7.24263 4.3751 9.99969 4.3751C12.7568 4.3751 14.9999 6.61822 14.9999 9.37528C14.9999 12.1323 12.7568 14.3754 9.99969 14.3754Z" fill="white"/>
</svg>
